<?xml version="1.0" standalone="no"?>
<!DOCTYPE svg PUBLIC "-//W3C//DTD SVG 20010904//EN"
 "http://www.w3.org/TR/2001/REC-SVG-20010904/DTD/svg10.dtd">
<svg version="1.0" xmlns="http://www.w3.org/2000/svg"
 width="760.000000pt" height="180.000000pt" viewBox="0 0 760.000000 180.000000"
 preserveAspectRatio="xMidYMid meet">

<g transform="translate(0.000000,180.000000) scale(0.100000,-0.100000)"
fill="#000000" stroke="none">
<path d="M1191 1306 c-49 -82 -99 -204 -127 -313 -34 -130 -43 -338 -21 -466
9 -49 18 -91 21 -94 12 -12 135 67 190 123 171 170 210 419 101 640 -31 64
-107 164 -124 164 -4 0 -22 -24 -40 -54z"/>
<path d="M315 999 c-23 -135 48 -332 161 -444 46 -46 144 -115 165 -115 13 0
29 90 29 158 0 174 -100 335 -254 411 -84 41 -93 40 -101 -10z"/>
<path d="M811 477 c-29 -14 -67 -64 -58 -74 9 -8 183 -10 192 -1 13 13 -7 50
-38 69 -37 22 -62 24 -96 6z"/>
</g>
</svg>
