<?xml version="1.0" encoding="utf-8"?>
<!-- Svg Vector Icons : http://www.onlinewebfonts.com/icon -->
<!DOCTYPE svg PUBLIC "-//W3C//DTD SVG 1.1//EN" "http://www.w3.org/Graphics/SVG/1.1/DTD/svg11.dtd">
<svg version="1.1" xmlns="http://www.w3.org/2000/svg" xmlns:xlink="http://www.w3.org/1999/xlink" x="0px" y="0px" viewBox="0 0 1000 1000" enable-background="new 0 0 1000 1000" xml:space="preserve">
<metadata> Svg Vector Icons : http://www.onlinewebfonts.com/icon </metadata>
<g><path d="M401.9,704.4c1.2-8.3,1.8-16.9,1.8-25.5c0-12.1-1.2-24-3.5-35.5c-16.5-82-88.9-143.8-175.7-143.8c-99,0-179.2,80.3-179.2,179.2c0,19.5,3.1,38.2,8.8,55.7c4.5,13.8,10.6,26.8,18.2,38.9c10.4,0.7,24-3.5,31.9-12.2c-9-13.1-15.8-27.7-20.2-43.4c-3.4-12.4-5.3-25.4-5.3-38.9c0-80.5,65.2-145.7,145.7-145.7c69.2,0,127.2,48.3,142,113c2.4,10.5,3.7,21.4,3.7,32.7c0,8.2-0.7,16.3-2,24.1C386.9,705.4,391.8,700.3,401.9,704.4z"/><path d="M988.6,240.1c-0.6-1.6-1.5-3.2-2.8-4.6C909.8,119.9,767.6,72.2,642,111.3c-27.9-8.8-57.6-13.6-88.3-13.6c-163.7,0-296.4,134.9-296.4,301.3c0,8.8,5.7,13.8,12.5,15.3c8.1,2.7,18,0.3,21.6-9.9c24.6-69.8,74.7-123.2,135.9-152.9C414,357.4,457.8,468,550.4,535.6c1.7,1.2,3.4,2,5,2.5c12.3,4.6,29.6-8.9,21.7-24.2c-46.1-89.5-37.3-193.4,14.2-272c-1.8,64.7,16.9,130.4,57.1,186.4c-1.5,53.5-7.4,111.8-17.8,172.2c-5.8,33.6-12.8,66.3-20.8,97.8c-46.2-5.8-95.2-8.9-145.4-8.9c-191.4,0-355.7,45.5-426.6,110.5c-13.3,7.9-23.2,21.1-26.9,36.7c-0.6,2.2-0.9,4.8-0.9,7.9c0,30.2,22.8,54.9,51.8,57.5v0.1h1.4c1.2,0.1,2.4,0.1,3.6,0.1c1.1,0,2.1,0,3.1-0.1h796.9c1.3,0.2,2.7,0.2,4.3,0.2c1.7,0,3.4-0.1,5.1-0.2h0.9V902c28.7-3,51.1-27.7,51.1-57.7c0-4.8-0.8-8.4-2.1-11c-1.3-5.6-3.5-10.9-6.3-15.7c-3.6-6.1-8.2-11.5-13.7-15.8c-26.1-23.3-64.7-44.1-112.2-61.3c6.7-50.4,10.3-104.2,10.3-159.5c0-86.6-8.9-167.8-24.4-237.6c24.4,28.2,43.3,61.8,54.6,99.7c2.1,7.1,7.5,10.8,13.3,11.6c7.9,1.9,16.7-1,19.5-9.9c0.7-1.6,1-3.4,1-5.4c12.2-79.2-7.5-156.5-49.5-218.2c49.3-0.7,99.4,12,144.5,39.5c6.4,3.9,12.8,3,17.6-0.3C987.8,256.6,992.5,248.5,988.6,240.1z M873.5,867.6H63.9c-10.8-1.6-19-11-19.2-22.3c0.6-3.7,1.8-6.6,3-8.7C93.9,772.1,263,724.3,464.4,724.3c53.8,0,106.1,3.4,154.7,9.6c12.8,1.6,18.2-4,19.1-11c0.3-0.7,0.5-1.4,0.7-2.1c6.3-23.1,12.1-47,17.2-71.4l53.8,9.6c1.7,0.6,3.6,1,5.6,1c9.3,0,16.9-7.7,16.9-17.1c0-9.4-7.4-17-16.6-17.1l0-0.1l-53.1-9.5c0.6-3.2,1.2-6.3,1.7-9.5c4.7-27,8.4-53.6,11.2-79.6l36.9-3.3c2,0.2,4,0.1,6-0.5c9-2.5,14.3-11.9,11.9-21c-2.3-8.7-10.7-14-19.3-12.4l-32.5,3.1c1.4-18,2.3-35.8,2.8-53.1c4-3.6,6.3-9,4.9-15.7c-2-9.1-3.5-18.1-4.6-27.1c-0.2-14.4-0.8-28.4-1.6-42.1c1.1-26.6,6.1-52.6,14.6-77.2c14.7,7.2,28.7,15.8,41.8,25.6c19.6,71,31.8,160.8,33.1,259.1l-51-4.5c-9-2.3-18.2,3.2-20.6,12.4c-2.4,9.3,3,18.8,12.1,21.3c2.5,0.7,5,0.7,7.4,0.3l52.2,4.6c-0.6,55.9-4.8,110-11.7,159.9c-1.2,1.9-1.9,3.9-1.9,5.7c0,12.6-10,22.7-22.4,22.7c-0.4,0-0.8,0-1.1,0.1h-66.2c-0.6-0.1-1.2-0.1-1.8-0.1c-9.4,0-17.1,7.8-17.1,17.4c0,9.6,7.7,17.4,17.1,17.4c0.3,0,0.6,0,0.9,0v0H729c1.3,0.2,2.7,0.3,4.3,0.3c27.9,0,51-20.6,55.5-47.7c40.5,14.4,72.7,31.5,93.5,50.3c2,2.8,3.8,5.9,5.4,9.2c3.4,4,5.4,9.1,5.4,14.8c0,0,0,0,0,0C892.3,857.4,884.1,866.2,873.5,867.6z M753.9,195.7c-1.6,0-3.2,0.1-4.7,0.6c-9.1,2.5-14.5,12-12.1,21.3c2.4,9.3,11.8,14.8,20.9,12.3c1.5-0.4,2.9-1,4.2-1.8c5.8-1.3,11.6-2.4,17.5-3.4c31.1,39.6,51.3,87.9,56.6,139.6c-24.6-40.8-58-74.6-96.9-99.5c-13.3-8.5-27.3-16-41.8-22.4c-7.8-6.3-18.2-13.7-19.1-12.1c-0.1,0.2-0.2,0.4-0.3,0.6c-19.2,38.4-30.3,81.1-31.9,125.3c-21.9-51.2-27-107.4-16.3-160.4c3-4.1,4.2-9.5,2.8-14.8c-2.4-9.3-11.8-14.8-20.9-12.3c-1.1,0.3-2.2,0.7-3.2,1.2c0,0,0,0,0,0c0,0-0.1,0.1-0.1,0.1c-3.1,1.6-5.5,4-7.1,7C527.7,251,497,360.3,522.2,463.4c-53.4-63.1-74.5-147-59.1-226.2c7.2-2.2,14.4-4,21.7-5.6c1.8,0.1,3.6-0.1,5.4-0.5c1-0.3,2-0.7,2.9-1.1c0.1,0,0.2,0,0.3-0.1c0,0,0,0,0-0.1c7.2-3.6,11.1-11.9,8.9-20.1c-2.4-9.3-11.8-14.8-20.9-12.3c-1.1,0.3-2.1,0.7-3.1,1.2c-9.1,1.9-18.1,4.2-27,7c-0.1,0-0.1-0.1-0.1-0.1c-5.1,1.6-10.1,3.4-15.1,5.3C388,228.7,344,259,309.6,300C348,201.1,443,131.1,554,131.1c47.4,0,91.9,12.8,130.3,35.1c3.9,6.3,11.5,9.5,18.9,7.5c9.1-2.5,14.5-12,12.1-21.3c-1.6-6.1-6.2-10.5-11.8-12.2c-2.5-2.1-5.6-4.3-9.4-6.6c77.8-10.7,158.1,13.5,217.6,67.1C859.7,185,805.2,183.7,753.9,195.7z"/></g>
</svg>