<?xml version="1.0" encoding="utf-8"?>
<!-- Svg Vector Icons : http://www.onlinewebfonts.com/icon -->
<!DOCTYPE svg PUBLIC "-//W3C//DTD SVG 1.1//EN" "http://www.w3.org/Graphics/SVG/1.1/DTD/svg11.dtd">
<svg version="1.1" xmlns="http://www.w3.org/2000/svg" xmlns:xlink="http://www.w3.org/1999/xlink" x="0px" y="0px" viewBox="0 0 1000 1000" enable-background="new 0 0 1000 1000" xml:space="preserve">
<metadata> Svg Vector Icons : http://www.onlinewebfonts.com/icon </metadata>
<g><g transform="translate(0.000000,511.000000) scale(0.100000,-0.100000)"><path d="M4879,4996.7c-125.3-17.3-110.2-10.8-546.7-263.6c-181.5-105.9-371.7-209.6-421.4-229.1c-69.2-25.9-211.8-36.7-628.8-47.5c-497-10.8-548.9-17.3-646.1-60.5c-201-90.8-267.9-168.6-488.4-557.5c-278.8-494.9-378.2-594.3-873-873C885.5,2745,807.7,2678,717,2477c-43.2-97.2-49.7-151.3-60.5-646.1c-10.8-365.2-23.8-564-43.2-615.9c-15.1-41.1-129.7-250.7-250.7-464.6C12.5,141,12.5,87,362.5-522.4c123.2-216.1,235.6-425.7,250.7-466.8c19.4-49.7,32.4-252.8,41-615.9c13-523,15.1-544.6,71.3-661.3c82.1-181.5,185.8-268,589.9-499.2c471.1-267.9,540.2-339.3,812.5-814.7c226.9-395.5,313.3-499.2,492.7-581.3c116.7-56.2,138.3-58.3,661.3-71.3c363-8.7,566.2-21.6,615.9-41.1c41-15.1,250.7-127.5,466.8-250.7c609.4-350.1,661.3-350.1,1270.6,0c216.1,123.2,425.7,235.5,466.8,250.7c49.7,19.5,252.8,32.4,615.9,41.1c523,13,544.6,15.1,661.3,71.3c181.5,82.1,268,185.8,501.4,594.3c270.1,475.4,324.1,529.4,799.6,799.6c408.4,233.4,512.1,319.8,594.3,501.3c56.2,116.7,58.3,138.3,71.3,661.3c8.7,363,21.6,566.2,41.1,615.9c15.1,41.1,127.5,250.7,250.7,466.8c350.1,609.4,350.1,661.3,0,1270.7c-123.2,216.1-235.5,425.7-250.7,466.8c-19.5,49.7-32.4,252.8-41.1,615.9c-13,523-15.1,544.6-71.3,661.3c-82.1,181.5-185.8,268-589.9,499.2c-473.3,270.1-542.4,339.3-812.5,816.8c-224.8,393.3-311.2,497-492.7,579.1c-116.7,56.2-138.3,58.3-661.3,71.3c-363,8.6-566.2,21.6-615.9,41.1c-41.1,15.1-250.7,127.5-464.6,250.7c-231.2,131.8-423.6,226.9-475.4,235.5c-47.5,6.5-105.9,15.1-129.7,19.4C5008.6,5009.7,4939.5,5005.4,4879,4996.7z M7323,2781.7c101.6-99.4,92.9-121-259.3-544.6c-678.6-816.8-1357.1-2035.6-1906-3431.6C4989.2-1615.8,4691-2493.2,4665.1-2638c-8.7-43.2-23.8-84.3-32.4-90.8c-8.7-6.5-127.5,92.9-261.5,218.2C3521.9-1717.4,2726.7-1086.4,2305.3-866c-205.3,108-257.2,164.2-231.2,252.8c23.8,79.9,75.6,121,153.4,121c231.2,0,1015.7-559.7,1947-1389.5c177.2-157.7,289.6-244.2,296.1-226.9c4.3,15.1,60.5,175,121,352.2C5190.2-3.8,6115.1,1703.4,6990.3,2669.4C7161,2857.4,7228,2879,7323,2781.7z"/></g></g>
</svg>